<?xml version="1.0" standalone="no"?>
<!DOCTYPE svg PUBLIC "-//W3C//DTD SVG 20010904//EN"
 "http://www.w3.org/TR/2001/REC-SVG-20010904/DTD/svg10.dtd">
<svg version="1.0" xmlns="http://www.w3.org/2000/svg"
 width="280.000000pt" height="280.000000pt" viewBox="0 0 280.000000 280.000000"
 preserveAspectRatio="xMidYMid meet">
<metadata>
Created by potrace 1.11, written by Peter Selinger 2001-2013
</metadata>
<g transform="translate(0.000000,280.000000) scale(0.100000,-0.100000)"
fill="#000000" stroke="none">
<path d="M355 2745 c-137 -44 -248 -158 -294 -304 -8 -23 -11 -345 -11 -1035
0 -1087 -2 -1043 56 -1142 54 -93 142 -164 246 -199 42 -14 158 -15 1065 -13
l1018 3 67 32 c87 41 165 119 209 209 l34 69 0 1040 c0 752 -3 1047 -11 1065
-7 14 -13 30 -14 35 -6 23 -67 103 -109 142 -24 24 -74 57 -110 75 l-66 33
-1020 2 c-807 1 -1028 -1 -1060 -12z m1370 -289 c206 -71 357 -212 469 -440
156 -317 226 -740 226 -1368 l0 -258 -369 0 -368 0 -7 37 c-3 21 -6 181 -6
356 l0 317 -275 0 -275 0 0 -355 0 -355 -370 0 -370 0 0 183 c1 495 53 923
150 1220 125 385 317 602 600 677 66 18 101 20 295 17 211 -3 223 -4 300 -31z"/>
<path d="M1304 2231 c-40 -24 -77 -72 -103 -134 -45 -104 -81 -371 -81 -593
l0 -94 285 0 285 0 0 33 c0 17 -5 107 -10 198 -20 345 -82 527 -200 587 -56
28 -133 30 -176 3z"/>
</g>
</svg>
